<svg width="75" height="104" viewBox="0 0 75 104" fill="none" xmlns="http://www.w3.org/2000/svg">
<g filter="url(#filter0_d_52_228)">
<path d="M17.2516 45.7642C18.5657 46.1673 19.3505 48.1367 20.482 50.9947C21.6136 53.8526 21.7687 55.8312 22.5991 55.9228C23.1649 55.9778 23.6576 55.1076 24.3238 53.9626C25.5466 51.8649 26.8972 49.8496 28.0926 47.752C29.9815 44.4543 31.7427 41.3399 33.8325 41.3399C35.6119 41.3399 36.9533 43.6574 39.2073 47.6512C42.2552 53.0649 42.7936 56.3625 44.0712 56.3076C46.0605 56.2159 46.4438 49.071 48.7981 48.9061C50.6232 48.7779 51.0521 52.9366 54.7753 54.3473C55.3293 54.564 55.915 54.6878 56.5091 54.7137C52.8589 39.0865 38.6142 16.7815 31.396 6C24.2417 16.7082 10.1794 38.7842 6.38328 54.3106C6.96315 54.0383 7.52682 53.7324 8.07147 53.3946C13.3916 49.9962 14.9155 45.0406 17.2516 45.7642ZM54.7753 64.3593C51.4171 63.9654 50.4316 64.6982 47.3928 64.7074C42.9031 64.7074 41.7898 63.1227 38.0028 62.509C32.6827 61.6479 31.5602 64.2677 24.6523 65.3395C15.317 66.7868 13.7748 62.5914 6 64.2311C6.95292 70.2609 10.0041 75.7565 14.6116 79.7418C19.2191 83.727 25.0847 85.944 31.1665 85.999C37.2482 86.0539 43.1526 83.9432 47.8308 80.0417C52.5089 76.1403 55.6581 70.7007 56.719 64.6891C56.1806 64.5792 55.5418 64.4509 54.7753 64.3593Z" fill="#4D774E"/>
<path d="M16.9557 46.7194L16.9584 46.7203C17.2258 46.8023 17.5864 47.0933 18.0619 47.9459C18.5245 48.7754 18.9777 49.9116 19.5522 51.3628C19.9444 52.3534 20.2058 53.2055 20.4341 53.9496C20.5272 54.2532 20.6148 54.5389 20.7036 54.8086C20.8461 55.2419 21.0088 55.6867 21.2246 56.0387C21.4428 56.3947 21.8339 56.8445 22.4895 56.9168L22.4894 56.9169L22.5024 56.9181C23.3597 57.0014 23.9288 56.3696 24.211 56.0094C24.5206 55.6142 24.83 55.0818 25.1286 54.5679C25.1485 54.5337 25.1683 54.4995 25.1882 54.4654C25.7484 53.5044 26.3364 52.5599 26.9326 51.6023C26.9775 51.5301 27.0225 51.4579 27.0675 51.3856C27.7069 50.3582 28.3529 49.3148 28.9614 48.2471L28.9947 48.1891C29.9388 46.5407 30.8015 45.0347 31.6729 43.9279C32.5923 42.7603 33.2922 42.3399 33.8325 42.3399C34.2337 42.3399 34.7543 42.5862 35.5528 43.6121C36.3366 44.6191 37.1958 46.1217 38.3362 48.1423C39.5733 50.3397 40.3841 52.1711 41.0162 53.5989C41.1485 53.8977 41.2729 54.1788 41.3918 54.4419C41.7244 55.1779 42.0442 55.8442 42.3891 56.3235C42.7276 56.7939 43.2778 57.3426 44.1141 57.3066L44.1172 57.3065C44.6891 57.2802 45.1343 56.9971 45.4542 56.6788C45.7658 56.3688 46.0095 55.9773 46.2072 55.593C46.5652 54.897 46.8749 54.012 47.1606 53.1959C47.1877 53.1185 47.2146 53.0417 47.2412 52.9658C47.5663 52.0404 47.8689 51.2179 48.2136 50.6166C48.586 49.967 48.8188 49.9072 48.868 49.9037L48.8682 49.9037C48.8684 49.9037 48.8687 49.9036 48.8692 49.9035C48.8805 49.9015 48.9755 49.8848 49.2356 50.1734C49.4679 50.431 49.6929 50.7721 49.9961 51.2318C50.073 51.3483 50.1548 51.4724 50.2431 51.6047C51.061 52.8304 52.2454 54.4563 54.416 55.2805C55.071 55.5361 55.7634 55.6822 56.4656 55.7127C56.7782 55.7263 57.0791 55.5929 57.2788 55.3521C57.4785 55.1113 57.554 54.7909 57.4829 54.4862C55.6249 46.5317 51.094 36.9487 46.1652 28.055C41.2259 19.1423 35.8427 10.8443 32.2269 5.44367C32.0412 5.16627 31.7293 4.99984 31.3955 5C31.0617 5.00016 30.7499 5.16689 30.5645 5.44447C26.9806 10.8086 21.6595 19.0304 16.756 27.8631C11.8625 36.6779 7.34307 46.1746 5.41189 54.0731C5.32042 54.4473 5.45195 54.8407 5.75005 55.0846C6.04815 55.3285 6.45983 55.3795 6.80844 55.2158C7.42333 54.9269 8.02101 54.6026 8.59852 54.2445L8.59856 54.2445L8.6098 54.2374C11.2727 52.5363 13.0307 50.4636 14.3373 48.923C14.4069 48.841 14.4752 48.7604 14.5423 48.6815C15.2291 47.8739 15.7317 47.3094 16.1799 46.9732C16.5907 46.6651 16.7915 46.6686 16.9557 46.7194ZM54.8939 63.3664L54.8918 63.3661C53.1113 63.1573 51.9404 63.2478 50.8362 63.3905C50.6338 63.4166 50.4372 63.4438 50.242 63.4709C49.3891 63.5891 48.5613 63.7038 47.3911 63.7074C45.2925 63.7072 44.009 63.3426 42.7732 62.8975C42.5515 62.8176 42.327 62.7332 42.0965 62.6466C41.0224 62.2428 39.8186 61.7902 38.1627 61.5218L38.1625 61.5218C35.2729 61.0541 33.4784 61.5451 31.5706 62.2636C31.295 62.3674 31.0183 62.4752 30.7358 62.5852C29.1266 63.2122 27.3306 63.912 24.4991 64.3513C20.0285 65.0444 17.4636 64.3943 14.995 63.7459L14.8797 63.7156C12.3616 63.0539 9.8571 62.3956 5.79365 63.2526C5.27267 63.3625 4.92915 63.8613 5.01226 64.3872C6.00195 70.6496 9.17096 76.358 13.9574 80.4981C18.744 84.6382 24.8381 86.9418 31.1574 86.9989C37.4768 87.056 43.6112 84.8628 48.4712 80.8097C53.3311 76.7567 56.602 71.1065 57.7037 64.8629C57.7979 64.3292 57.4499 63.8177 56.919 63.7093C56.3775 63.5987 55.7043 63.4632 54.8939 63.3664Z" stroke="#4D774E" stroke-width="2" stroke-linejoin="round"/>
</g>
<defs>
<filter id="filter0_d_52_228" x="0" y="0" width="74.7197" height="104" filterUnits="userSpaceOnUse" color-interpolation-filters="sRGB">
<feFlood flood-opacity="0" result="BackgroundImageFix"/>
<feColorMatrix in="SourceAlpha" type="matrix" values="0 0 0 0 0 0 0 0 0 0 0 0 0 0 0 0 0 0 127 0" result="hardAlpha"/>
<feOffset dx="6" dy="6"/>
<feGaussianBlur stdDeviation="5"/>
<feComposite in2="hardAlpha" operator="out"/>
<feColorMatrix type="matrix" values="0 0 0 0 0 0 0 0 0 0 0 0 0 0 0 0 0 0 0.25 0"/>
<feBlend mode="normal" in2="BackgroundImageFix" result="effect1_dropShadow_52_228"/>
<feBlend mode="normal" in="SourceGraphic" in2="effect1_dropShadow_52_228" result="shape"/>
</filter>
</defs>
</svg>
